HIERARCHY
ROOT Hips
{
  OFFSET 59.6422 97.0319 27.3806
  CHANNELS 6 Xposition Yposition Zposition Zrotation Xrotation Yrotation
  JOINT spine
  {
    OFFSET 0 7.96568 0.458067
    CHANNELS 3 Zrotation Xrotation Yrotation
    JOINT spine1
    {
      OFFSET 0 10.2431 0
      CHANNELS 3 Zrotation Xrotation Yrotation
      JOINT spine2
      {
        OFFSET 0 9.81475 0
        CHANNELS 3 Zrotation Xrotation Yrotation
        JOINT Neck
        {
          OFFSET 0 25.1986 1.20138
          CHANNELS 3 Zrotation Xrotation Yrotation
          JOINT Head
          {
            OFFSET 0 7.61315 0
            CHANNELS 3 Zrotation Xrotation Yrotation
            End Site
            {
              OFFSET 0 18.4281 -6.07733
            }
          }
        }
        JOINT RightShoulder
        {
          OFFSET -4.1327 10.5992 -0.575451
          CHANNELS 3 Zrotation Xrotation Yrotation
          JOINT RightArm
          {
            OFFSET 0 13.9018 0
            CHANNELS 3 Zrotation Xrotation Yrotation
            JOINT RightArmRoll
            {
              OFFSET 0 7.01788 0
              CHANNELS 3 Zrotation Xrotation Yrotation
              JOINT RightForeArm
              {
                OFFSET 0 20.4406 0
                CHANNELS 3 Zrotation Xrotation Yrotation
                JOINT RightForeArmRoll
                {
                  OFFSET 0 7.87515 0
                  CHANNELS 3 Zrotation Xrotation Yrotation
                  JOINT RightHand
                  {
                    OFFSET 0 15.8037 0
                    CHANNELS 3 Zrotation Xrotation Yrotation
                    End Site
                    {
                      OFFSET 0 0 0
                    }
                  }
                }
              }
            }
          }
        }
        JOINT LeftShoulder
        {
          OFFSET 4.1327 10.5992 -0.575451
          CHANNELS 3 Zrotation Xrotation Yrotation
          JOINT LeftArm
          {
            OFFSET 0 13.9018 0
            CHANNELS 3 Zrotation Xrotation Yrotation
            JOINT LeftArmRoll
            {
              OFFSET 0 7.01789 0
              CHANNELS 3 Zrotation Xrotation Yrotation
              JOINT LeftForeArm
              {
                OFFSET 0 20.4406 0
                CHANNELS 3 Zrotation Xrotation Yrotation
                JOINT LeftForeArmRoll
                {
                  OFFSET 0 7.87515 0
                  CHANNELS 3 Zrotation Xrotation Yrotation
                  JOINT LeftHand
                  {
                    OFFSET 0 15.8037 0
                    CHANNELS 3 Zrotation Xrotation Yrotation
                    End Site
                    {
                      OFFSET 0 0 0
                    }
                  }
                }
              }
            }
          }
        }
      }
    }
  }
  JOINT RightUpLeg
  {
    OFFSET -7.06048 -1.2947 -1.08609
    CHANNELS 3 Zrotation Xrotation Yrotation
    JOINT RightUpLegRoll
    {
      OFFSET 0 18.5308 0
      CHANNELS 3 Zrotation Xrotation Yrotation
      JOINT RightLeg
      {
        OFFSET 0 -22.9476 0
        CHANNELS 3 Zrotation Xrotation Yrotation
        JOINT RightLegRoll
        {
          OFFSET 0 23.0226 0
          CHANNELS 3 Zrotation Xrotation Yrotation
          JOINT RightFoot
          {
            OFFSET 0 19.1625 0
            CHANNELS 3 Zrotation Xrotation Yrotation
            JOINT RightToeBase
            {
              OFFSET 0 16.0188 0
              CHANNELS 3 Zrotation Xrotation Yrotation
              End Site
              {
                OFFSET 0.00678979 7.75782 -0.894206
              }
            }
          }
        }
      }
    }
  }
  JOINT LeftUpLeg
  {
    OFFSET 7.06048 -1.2947 -1.08609
    CHANNELS 3 Zrotation Xrotation Yrotation
    JOINT LeftUpLegRoll
    {
      OFFSET 0 18.5309 0
      CHANNELS 3 Zrotation Xrotation Yrotation
      JOINT LeftLeg
      {
        OFFSET 0 22.9475 0
        CHANNELS 3 Zrotation Xrotation Yrotation
        JOINT LeftLegRoll
        {
          OFFSET 0 23.2355 0
          CHANNELS 3 Zrotation Xrotation Yrotation
          JOINT LeftFoot
          {
            OFFSET 0 18.9496 0
            CHANNELS 3 Zrotation Xrotation Yrotation
            JOINT LeftToeBase
            {
              OFFSET 0 16.0188 0
              CHANNELS 3 Zrotation Xrotation Yrotation
              End Site
              {
                OFFSET -0.0304289 7.75782 -0.894207
              }
            }
          }
        }
      }
    }
  }
}
MOTION
Frames: 5
Frame Time: 0.00208333
59.8726 96.9988 27.4045 1.56311 -3.68103 0.875062 -0.675651 -0.681174 -0.337554 -1.35987 2.64366 -0.594896 -1.35424 4.28843 -0.572573 -25.7912 2.46237 -7.48483 28.713 21.3697 -15.2503 38.4714 -11.0649 -7.10474 72.822 22.6093 34.0492 -2.38542e-015 -4.77083e-015 1.27222e-014 -4.47691 1.06211 -0.842865 -8.47159e-006 -1.19465e-005 -3.00042 8.02913 -4.95141 0.697663 -68.2298 -2.67982 2.49447 -100.347 21.0647 -3.76284 -2.96836e-005 1.07723e-006 1.20732e-006 -9.15797 6.94176 1.25284 1.0874e-005 1.20473e-006 3.00001 -8.02898 -4.95142 -0.697703 174.873 -3.994 4.62745 180 7.01523e-015 178.822 177.834 5.7197 179.738 4.95523e-006 -6.37223e-006 0.0952182 -19.3829 68.7602 20.1892 8.13649 25.2327 -3.48774 -176.337 -2.5432 -0.682292 4.54188e-006 -4.6773e-006 -1.17638 -1.89508 -6.18751 0.032718 4.09101e-008 -1.01983e-005 -0.0839198 19.0134 68.2914 -19.7885 -8.13649 25.2327 3.48774 
59.8748 97.0162 27.4304 1.56813 -3.66879 0.868126 -0.672576 -0.684513 -0.339192 -1.35492 2.63699 -0.598518 -1.34923 4.28177 -0.57628 -25.6912 2.49126 -7.45155 28.5796 21.3709 -15.1899 38.5623 -11.0491 -7.08922 72.9699 22.5172 33.8274 -3.97569e-015 1.27222e-014 6.36111e-015 -4.33643 0.955423 -0.85136 -8.47159e-006 -1.19465e-005 -3.00042 8.02913 -4.95141 0.697663 -68.205 -2.67386 2.48935 -100.343 21.0636 -3.8006 -2.96836e-005 1.07723e-006 1.20732e-006 -9.1249 6.93677 1.25191 1.0874e-005 1.20473e-006 3.00001 -8.02898 -4.95142 -0.697703 174.863 -3.97385 4.63151 180 7.01523e-015 178.822 177.831 5.72853 179.738 4.95523e-006 -6.37223e-006 0.0953798 -19.3849 68.7624 20.1911 8.13649 25.2327 -3.48774 -176.346 -2.52716 -0.676198 4.54188e-006 -4.6773e-006 -1.17647 -1.89504 -6.19271 0.0324962 4.09101e-008 -1.01983e-005 -0.0837857 19.0135 68.2911 -19.7886 -8.13649 25.2327 3.48774 
59.8819 97.0112 27.4195 1.57241 -3.65846 0.859897 -0.669453 -0.687541 -0.34062 -1.34971 2.63095 -0.60173 -1.34399 4.27572 -0.579581 -25.5905 2.52082 -7.41816 28.4461 21.3711 -15.1291 38.6562 -11.0327 -7.07326 73.1105 22.4306 33.6284 -3.97569e-015 -1.59028e-015 6.36111e-015 -4.21334 0.856216 -0.859199 -8.47159e-006 -1.19465e-005 -3.00042 8.02913 -4.95141 0.697663 -68.1786 -2.66791 2.4841 -100.342 21.0611 -3.83685 -2.96836e-005 1.07723e-006 1.20732e-006 -9.09234 6.93345 1.25112 1.0874e-005 1.20473e-006 3.00001 -8.02898 -4.95142 -0.697703 174.855 -3.95608 4.63534 180 7.01523e-015 178.822 177.829 5.73676 179.738 4.95523e-006 -6.37223e-006 0.0955442 -19.3867 68.7644 20.1929 8.13649 25.2327 -3.48774 -176.353 -2.51467 -0.67139 4.54188e-006 -4.6773e-006 -1.17656 -1.89558 -6.19624 0.032258 4.09101e-008 -1.01983e-005 -0.0836518 19.0134 68.2906 -19.7884 -8.13649 25.2327 3.48774 
59.8748 97.0113 27.4245 1.57588 -3.65047 0.850117 -0.666279 -0.690182 -0.341795 -1.34422 2.62567 -0.604447 -1.33845 4.27045 -0.582393 -25.4894 2.55118 -7.38471 28.3125 21.3703 -15.068 38.7535 -11.0158 -7.05684 73.2425 22.3512 33.4552 -1.03368e-014 0 1.27222e-014 -4.11015 0.764601 -0.866476 -8.47159e-006 -1.19465e-005 -3.00042 8.02913 -4.95141 0.697663 -68.1505 -2.66205 2.47874 -100.343 21.0574 -3.87138 -2.96836e-005 1.07723e-006 1.20732e-006 -9.06042 6.93173 1.25047 1.0874e-005 1.20473e-006 3.00001 -8.02898 -4.95142 -0.697703 174.847 -3.94121 4.63897 180 7.01523e-015 178.822 177.827 5.74429 179.739 4.95523e-006 -6.37223e-006 0.0957108 -19.3882 68.7661 20.1944 8.13649 25.2327 -3.48774 -176.359 -2.50646 -0.668052 4.54188e-006 -4.6773e-006 -1.17664 -1.89678 -6.19776 0.0320046 4.09101e-008 -1.01983e-005 -0.0835181 19.013 68.2897 -19.7879 -8.13649 25.2327 3.48774 
59.8653 97.0123 27.4224 1.57846 -3.6452 0.838522 -0.66305 -0.692363 -0.342676 -1.33838 2.62131 -0.606586 -1.33258 4.26609 -0.584631 -25.3883 2.58247 -7.35121 28.1788 21.3684 -15.0066 38.8544 -10.9983 -7.03992 73.3645 22.2801 33.3109 -7.95139e-016 -6.36111e-015 -0 -4.02934 0.680694 -0.873287 -8.47159e-006 -1.19465e-005 -3.00042 8.02913 -4.95141 0.697663 -68.1206 -2.65635 2.4733 -100.346 21.0523 -3.90399 -2.96836e-005 1.07723e-006 1.20732e-006 -9.02927 6.93153 1.24995 1.0874e-005 1.20473e-006 3.00001 -8.02898 -4.95142 -0.697703 174.84 -3.92972 4.64239 180 7.01523e-015 178.822 177.824 5.75102 179.739 4.95523e-006 -6.37223e-006 0.0958787 -19.3895 68.7675 20.1956 8.13649 25.2327 -3.48774 -176.363 -2.50329 -0.666362 4.54188e-006 -4.6773e-006 -1.17673 -1.89876 -6.19692 0.0317372 4.09101e-008 -1.01983e-005 -0.0833848 19.0122 68.2884 -19.787 -8.13649 25.2327 3.48774 
